<?xml version="1.0" encoding="utf-8"?>
<!-- Generator: Adobe Illustrator 22.0.0, SVG Export Plug-In . SVG Version: 6.00 Build 0)  -->
<svg version="1.1" id="Layer_1" xmlns="http://www.w3.org/2000/svg" xmlns:xlink="http://www.w3.org/1999/xlink" x="0px" y="0px"
	 viewBox="0 0 334 99" style="enable-background:new 0 0 334 99;" xml:space="preserve">
<style type="text/css">
	.st0{fill:#FFFFFF;}
</style>
<g>
	<path class="st0" d="M161.3,61.6c2.1-4.9,3.2-10.4,3.2-16.3c0-11.4-4-21.1-11.8-28.9s-17.6-11.8-29-11.8c-7.4,0-14.3,1.8-20.5,5.4
		S92,18.6,88.4,24.9S83,38.2,83,45.6c0,11.1,4,20.7,11.8,28.5s17.6,11.8,29,11.8c7.4,0,14.3-1.8,20.3-5.2l7.3,9.3H164l-12.1-15.2
		C156.2,70.6,159.3,66.2,161.3,61.6z M154.1,45.2c0,8.4-2.8,15.6-8.3,21.5L133,50.4h-12.4L138,72.5c-4.3,2.3-9.1,3.4-14.3,3.4
		c-8.3,0-15.4-3-21.3-8.8S93.6,54,93.6,45.5c0-5.7,1.3-11,4-15.7c2.6-4.7,6.4-8.4,11.1-11.2c4.7-2.7,9.8-4.1,15.2-4.1
		c5.3,0,10.4,1.4,15.2,4.2s8.6,6.5,11.2,11C152.8,34.3,154.1,39.5,154.1,45.2z"/>
	<g>
		<path class="st0" d="M95.1,53.4c0,0.1-0.1,0.2-0.1,0.3c-0.2-2.7-2.2-5.6-5.9-7.9c-8.9-5.6-22.1-4-31.9-2.6
			c-2.1,0.3-4.2,0.7-6.2,1.2c0,0.8,0,1.5,0.1,2.3c3-0.7,5.9-1.3,9-1.8c7.8-1.1,32.6-2.6,34.9,8.9c-3.3,5.8-21.3,9.2-23.8,1.8
			c2.2-4.4,11.2-6.3,14.3-2.1c-0.1,0.2-0.1,0.4-0.2,0.6c-0.3,0.6,0.3,1.6,0,2.1c0.8-1.5,0.9-2.7,0.6-3.8c0-0.1,0-0.2,0-0.3
			c0,0.1,0,0.1,0,0.2c-1.7-4.5-12.9-4-14.9,1.8c-2.9,8.5,11.7,7.7,16.1,6.9c5.5-1,8-3.8,8-6.9c0.1,0.4,0.1,0.9,0.1,1.3
			C95.1,54.7,95.1,54.1,95.1,53.4z"/>
	</g>
	<g>
		<path class="st0" d="M89.9,51.7c0,0.1-0.1,0.3-0.1,0.4c0-0.5,0-1.1,0-1.6c-1-9.4-24.5-5.1-29.8-4.2c-3,0.5-6,1.2-8.9,2.1
			c0,0.7,0,1.4,0.1,2.1c2.9-0.8,5.9-1.5,8.9-2.1c6.4-1.2,27.2-5.1,29.7,4.3c-1.3,4.2-8.3,7-10.9,3.2c0.5-0.6,1.3-0.8,2.4-1
			c0.1,0-0.1-2.1,0-2.1c-1.7,0.3-2.6,1.2-2.9,2.3c0,0,0,0,0-0.1v0.2c-0.1,0.3-0.1,0.7,0,1v0.9c0-0.1,0-0.3,0.1-0.4
			c0.3,1,1.1,2,2.4,2.5c5.6,2.2,8.5-1.9,9-6.3c0.1,0.3,0.1,0.5,0.1,0.8v-2H89.9z"/>
	</g>
	<g>
		<path class="st0" d="M260.8,48.2H250c-8.9,0-17.7-0.4-26.6-0.8c-11.1-0.6-22.1-1.6-33-3.7c-12.3-2.3-23.1-7.5-34-13.4
			c-3.9-2.1-29.5-15.4-31-5.5c0,0,0-0.1-0.1-0.1v0.9c0,0.1,0,0.1,0,0.2v0.1v1c0-0.1,0.1-0.2,0.1-0.3c0.8,5.1,9.7,6,11.6,10.3
			c-2.8,4.3-14.6,1.2-18.2,0.6c-10.6-2-21.2-3.7-31.8-5.8c-11.4-2.3-22.5-5.6-34.1-6.3c-0.8-0.1-1.7-0.1-2.5,0
			c0,0.7,0.1,1.4,0.1,2.1c8.1-0.4,16.5,1.8,24.3,3.6c17.5,4,35.8,8.5,53.7,9.9c4.3,0.3,7.9-0.1,8.6-3.5c0.1,0.3,0.1,0.6,0.1,0.9
			c0-0.7,0-1.4,0-2.1c0,0,0,0.1-0.1,0.1c0-0.2,0.1-0.4,0-0.6c-0.2-4.5-9.4-6-11.6-10.1c4.3-8.7,47.7,15.5,52.1,17
			c21.1,7.3,44.7,7.1,66.8,7.8c5.5,0.2,11,0.2,16.6,0.2C261,49.7,260.9,48.9,260.8,48.2z"/>
	</g>
	<g>
		<path class="st0" d="M263.4,55.3h-11.7c-36.5,0-73.4,3.8-109.7,0.1c-8.5-0.9-39.6-10.5-42.9,0.7c-1.4,4.7,4.6,6,6.4,9.5
			c-1.3,3-5.2,4-8.9,4.6c-7.6,1-16.2,1.7-23.7,1c-2.2-0.2-4.7-0.7-7-1.4c0.5,0.8,0.9,1.6,1.4,2.3c8.3,1.8,17.2,1.3,30.5-0.3
			c3.7-0.5,7.5-2.2,7.9-5.5c0,0.1,0,0.1,0.1,0.2v-0.6c0,0,0,0,0-0.1v-0.1v-1c0,0.1-0.1,0.2-0.1,0.2c-0.7-3.3-5.2-3.9-6.4-6.8
			c-2.8-6.7,18.6-4.9,21.4-4.5c12.3,1.9,24.2,4,36.7,4.6c26.4,1.4,53-0.9,79.4-1.3c8.9-0.1,17.8-0.2,26.8-0.2
			C263.5,56.3,263.5,55.8,263.4,55.3z"/>
	</g>
	<g>
		<path class="st0" d="M261.8,51.9c-38.1-0.2-76.5-0.3-114.4-4.8c-20.7-2.5-41.2-6.2-61.7-9.8c-11.8-2.1-23.3-4.2-34.7-4.4
			c0,0.7,0.1,1.4,0.1,2c15.4,0,30.9,3.8,46.4,6.5c24.7,4.3,49.1,7.9,74.1,9.6c28.2,1.9,56.1,2.8,84.4,2.8l5.9-0.1
			C261.7,53.2,261.8,52.6,261.8,51.9z"/>
	</g>
	<polygon class="st0" points="233.5,7.6 233.5,33.3 242.1,33.3 242.1,75.9 259.2,92.9 301.7,92.9 318.8,75.9 318.8,33.3 327.4,33.3 
		327.4,7.6 284.7,7.6 284.7,33.3 293.3,33.3 293.3,67.2 267.6,67.2 267.6,33.3 276.2,33.3 276.2,7.6 	"/>
	<g>
		<path class="st0" d="M213.5,75.8l-6.3-7.4c-0.5,0.5-1.5,1.3-2.8,2.4l-0.1,0.1c-1.8,1.5-4.1,2.8-6.8,3.9c-2.7,1.1-5.2,1.6-7.6,1.6
			c-3.7,0-6.9-1.2-9.5-3.7c-2.6-2.4-3.9-5.4-3.9-8.9c0-2.5,0.6-4.8,1.9-6.9c1.3-2,3.4-4.1,6.3-6.2l0.1-0.1c1.7-1.3,3.2-2.2,4.4-2.9
			c-4.1-4.4-6.1-8.5-6.1-12.6c0-3.7,1.3-6.7,3.8-9s5.8-3.4,9.8-3.4c3.9,0,7.2,1.1,9.7,3.4s3.8,5.1,3.8,8.6c0,4.7-3.2,9.3-9.5,13.8
			l-0.5,0.4l7.6,8.7c2.2-2.4,4.2-5.3,5.8-8.7h7.7c-1.9,4.8-4.8,9.5-8.8,14.2l11,12.7H213.5z M200.6,64.6l1.7-1.6l-8.8-10.1l-3.4,2.4
			c-4,2.7-6,5.5-6,8.3c0,1.5,0.7,2.8,2,3.9s2.9,1.6,4.8,1.6c1.4,0,3.1-0.4,4.9-1.2C197.6,67,199.2,65.9,200.6,64.6z M195.6,43.7
			l3-2.1c2.8-1.9,4.1-4.2,4.1-6.8c0-1.6-0.6-2.9-1.7-4s-2.6-1.6-4.4-1.6c-1.7,0-3.1,0.5-4.2,1.5s-1.7,2.2-1.7,3.7
			c0,1.4,0.4,3,1.3,4.6C192.9,40.7,194.1,42.3,195.6,43.7z"/>
	</g>
	<path class="st0" d="M38.4,6.5L1.8,84h11.3l11.7-24.6h30.6L67.2,84h11L42,6.5H38.4z M50.8,49.5H29.4l10.7-22.7L50.8,49.5z"/>
	<path class="st0" d="M161.3,61.6c2.1-4.9,3.2-10.4,3.2-16.3c0-11.4-4-21.1-11.8-28.9c-0.3-0.3-0.5-0.5-0.8-0.7
		c-2.4,1.7-4.9,3.1-7.4,4.7c-0.5,0.3-1,0.8-1.4,1.1c2.9,2.3,5.3,5,7.1,8.2c2.6,4.6,4,9.8,4,15.5c0,8.4-2.8,15.6-8.3,21.5L133,50.4
		h-12.4L138,72.5c-1,0.5-2.1,1-3.2,1.4c1.9,2.9,3.4,5.9,4.4,9.1c1.8-0.7,3.5-1.5,5.2-2.5l7.3,9.3h12.6l-12.1-15.2
		C156.2,70.6,159.3,66.2,161.3,61.6z"/>
</g>
</svg>
