<?xml version="1.0" encoding="UTF-8" standalone="no"?>
<!DOCTYPE svg PUBLIC "-//W3C//DTD SVG 1.1//EN" "http://www.w3.org/Graphics/SVG/1.1/DTD/svg11.dtd">
<svg version="1.1" xmlns="http://www.w3.org/2000/svg" xmlns:xlink="http://www.w3.org/1999/xlink" preserveAspectRatio="xMidYMid meet" viewBox="0 0 640 640" width="640" height="640"><defs><path d="M240.28 234.02L241.89 234.09L243.49 234.19L245.08 234.32L246.65 234.48L248.21 234.67L249.76 234.88L251.3 235.12L252.83 235.4L254.34 235.7L255.84 236.02L257.33 236.38L258.81 236.76L260.27 237.18L261.72 237.62L263.16 238.09L264.59 238.59L266 239.11L267.4 239.66L268.79 240.25L270.16 240.86L271.52 241.49L272.87 242.16L274.21 242.85L275.53 243.57L276.84 244.32L278.13 245.1L279.41 245.9L280.68 246.74L281.94 247.6L283.18 248.48L284.4 249.4L285.62 250.34L286.82 251.31L288 252.31L289.17 253.34L290.33 254.39L291.47 255.47L292.6 256.57L293.71 257.7L294.79 258.84L295.84 260L296.86 261.17L297.86 262.35L298.83 263.55L299.77 264.75L300.69 265.98L301.58 267.21L302.44 268.46L303.27 269.72L304.07 271L304.85 272.29L305.6 273.59L306.32 274.9L307.01 276.23L307.68 277.57L308.32 278.93L308.93 280.3L309.51 281.68L310.06 283.07L310.59 284.48L311.09 285.9L311.56 287.33L312 288.77L312.41 290.23L312.79 291.7L313.15 293.18L313.48 294.68L313.78 296.19L314.05 297.71L314.29 299.24L314.51 300.79L314.69 302.34L314.85 303.91L314.98 305.5L315.08 307.09L315.15 308.7L315.2 310.32L315.21 311.95L315.21 312.8L315.19 313.64L315.17 314.48L315.15 315.32L315.11 316.15L315.07 316.99L315.02 317.81L314.96 318.64L314.89 319.46L314.82 320.28L314.74 321.1L314.65 321.91L314.55 322.72L314.44 323.52L314.33 324.33L314.21 325.13L314.08 325.92L313.95 326.71L313.8 327.5L313.65 328.29L313.49 329.07L313.33 329.85L313.16 330.62L312.97 331.39L312.79 332.16L312.59 332.92L312.39 333.68L312.18 334.44L311.96 335.19L311.73 335.93L311.5 336.68L311.26 337.42L311.01 338.15L310.76 338.88L310.5 339.61L310.23 340.33L309.95 341.05L309.67 341.77L309.38 342.48L309.08 343.19L308.79 343.85L308.49 344.5L308.18 345.16L307.86 345.82L307.54 346.47L307.21 347.13L306.87 347.78L306.52 348.43L306.17 349.08L305.81 349.72L305.43 350.37L305.05 351.02L304.67 351.66L304.27 352.3L303.87 352.94L303.46 353.58L303.03 354.22L302.61 354.85L302.17 355.49L301.72 356.12L301.27 356.75L300.81 357.38L300.34 358.01L299.86 358.64L299.38 359.26L298.88 359.89L298.38 360.51L297.87 361.13L297.35 361.75L296.82 362.37L296.28 362.99L295.74 363.6L295.18 364.22L294.62 364.83L294.05 365.44L293.47 366.05L292.88 366.66L292.28 367.27L291.68 367.87L291.07 368.48L314.25 397.6L290.11 397.6L276.12 379.78L275.25 380.27L274.38 380.74L273.5 381.2L272.62 381.65L271.73 382.08L270.83 382.51L269.93 382.92L269.02 383.32L268.11 383.71L267.19 384.09L266.26 384.46L265.33 384.81L264.39 385.15L263.45 385.48L262.5 385.8L261.54 386.11L260.59 386.4L259.62 386.68L258.65 386.95L257.68 387.21L256.7 387.45L255.71 387.69L254.72 387.91L253.73 388.12L252.73 388.31L251.73 388.5L250.72 388.67L249.7 388.83L248.69 388.97L247.66 389.11L246.64 389.23L245.61 389.34L244.57 389.43L243.54 389.52L242.49 389.59L241.45 389.65L240.4 389.69L239.34 389.72L238.28 389.74L237.22 389.75L235.59 389.73L233.97 389.69L232.36 389.62L230.76 389.52L229.18 389.39L227.6 389.23L226.04 389.05L224.49 388.83L222.95 388.59L221.43 388.32L219.91 388.02L218.41 387.69L216.92 387.33L215.44 386.95L213.98 386.54L212.53 386.09L211.09 385.62L209.66 385.13L208.25 384.6L206.85 384.05L205.46 383.47L204.09 382.86L202.73 382.22L201.38 381.55L200.04 380.86L198.72 380.14L197.41 379.39L196.12 378.61L194.84 377.81L193.57 376.98L192.31 376.12L191.07 375.23L189.85 374.31L188.63 373.37L187.44 372.4L186.25 371.4L185.08 370.38L183.92 369.32L182.78 368.25L181.65 367.14L180.55 366.01L179.47 364.87L178.41 363.72L177.39 362.55L176.39 361.37L175.42 360.18L174.48 358.98L173.56 357.76L172.67 356.53L171.81 355.29L170.98 354.04L170.18 352.77L169.4 351.49L168.65 350.2L167.93 348.9L167.24 347.58L166.57 346.26L165.93 344.92L165.32 343.57L164.74 342.2L164.19 340.83L163.66 339.44L163.17 338.04L162.7 336.63L162.26 335.21L161.84 333.78L161.46 332.33L161.1 330.88L160.77 329.41L160.47 327.93L160.2 326.44L159.96 324.94L159.74 323.43L159.56 321.9L159.4 320.37L159.27 318.82L159.17 317.26L159.1 315.7L159.06 314.12L159.04 312.53L159.05 311.46L159.07 310.41L159.1 309.35L159.15 308.3L159.2 307.25L159.27 306.2L159.36 305.16L159.46 304.12L159.57 303.08L159.69 302.04L159.82 301.01L159.97 299.99L160.13 298.96L160.31 297.94L160.5 296.93L160.7 295.92L160.91 294.91L161.14 293.9L161.38 292.9L161.63 291.9L161.89 290.91L162.17 289.92L162.46 288.94L162.77 287.96L163.08 286.98L163.41 286.01L163.76 285.04L164.11 284.07L164.48 283.11L164.86 282.16L165.26 281.21L165.66 280.26L166.08 279.32L166.52 278.38L166.96 277.45L167.42 276.52L167.9 275.6L168.38 274.68L168.88 273.77L169.39 272.86L169.91 271.96L170.44 271.07L170.99 270.19L171.54 269.32L172.1 268.45L172.67 267.6L173.26 266.75L173.85 265.92L174.45 265.09L175.06 264.28L175.68 263.47L176.31 262.68L176.95 261.89L177.6 261.11L178.26 260.34L178.93 259.58L179.61 258.84L180.3 258.1L180.99 257.37L181.7 256.65L182.42 255.94L183.14 255.24L183.88 254.55L184.62 253.86L185.37 253.19L186.14 252.53L186.91 251.88L187.69 251.24L188.48 250.61L189.28 249.99L190.08 249.37L190.9 248.77L191.72 248.18L192.56 247.6L193.4 247.02L194.25 246.46L195.11 245.91L195.98 245.37L196.86 244.83L197.75 244.31L198.64 243.8L199.54 243.3L200.44 242.82L201.35 242.35L202.27 241.89L203.18 241.44L204.11 241.01L205.03 240.59L205.97 240.18L206.9 239.78L207.85 239.4L208.79 239.03L209.74 238.68L210.7 238.34L211.66 238.01L212.62 237.69L213.59 237.39L214.57 237.09L215.54 236.82L216.53 236.55L217.51 236.3L218.5 236.06L219.5 235.83L220.5 235.62L221.5 235.42L222.51 235.23L223.52 235.06L224.54 234.9L225.56 234.75L226.58 234.61L227.61 234.49L228.64 234.38L229.68 234.28L230.72 234.2L231.76 234.13L232.81 234.07L233.86 234.02L234.91 233.99L235.97 233.97L237.03 233.96L238.66 233.98L240.28 234.02ZM235.87 252.95L235.09 252.98L234.33 253.01L233.56 253.06L232.8 253.11L232.03 253.18L231.28 253.25L230.52 253.34L229.76 253.43L229.01 253.54L228.26 253.65L227.51 253.78L226.77 253.91L226.03 254.06L225.28 254.21L224.55 254.37L223.81 254.55L223.08 254.73L222.35 254.92L221.62 255.12L220.89 255.34L220.17 255.56L219.45 255.79L218.73 256.03L218.02 256.28L217.3 256.54L216.59 256.81L215.89 257.09L215.18 257.38L214.48 257.68L213.78 257.99L213.08 258.3L212.39 258.63L211.7 258.97L211.01 259.31L210.33 259.67L209.64 260.03L208.96 260.41L208.29 260.79L207.62 261.2L206.95 261.61L206.29 262.03L205.64 262.45L204.99 262.88L204.35 263.32L203.72 263.77L203.1 264.22L202.48 264.68L201.87 265.14L201.26 265.61L200.66 266.09L200.07 266.57L199.49 267.07L198.91 267.56L198.34 268.07L197.78 268.58L197.23 269.1L196.68 269.62L196.14 270.16L195.61 270.69L195.09 271.24L194.57 271.79L194.06 272.35L193.56 272.92L193.07 273.49L192.58 274.07L192.11 274.66L191.64 275.25L191.18 275.85L190.72 276.46L190.28 277.08L189.84 277.7L189.41 278.33L188.99 278.96L188.58 279.61L188.18 280.26L187.78 280.91L187.4 281.58L187.02 282.25L186.63 282.93L186.26 283.61L185.9 284.3L185.55 284.99L185.2 285.68L184.87 286.38L184.55 287.08L184.23 287.79L183.93 288.5L183.64 289.22L183.35 289.93L183.08 290.66L182.82 291.38L182.56 292.11L182.32 292.85L182.08 293.59L181.86 294.33L181.65 295.07L181.44 295.82L181.25 296.57L181.06 297.33L180.88 298.09L180.72 298.85L180.56 299.62L180.41 300.39L180.28 301.17L180.15 301.94L180.03 302.72L179.92 303.51L179.82 304.29L179.73 305.08L179.65 305.88L179.58 306.67L179.52 307.47L179.47 308.28L179.43 309.08L179.4 309.89L179.37 310.7L179.36 311.52L179.35 312.34L179.36 313.55L179.39 314.76L179.45 315.96L179.52 317.15L179.61 318.33L179.73 319.51L179.86 320.67L180.02 321.83L180.2 322.97L180.4 324.11L180.62 325.24L180.86 326.36L181.12 327.47L181.4 328.57L181.71 329.66L182.03 330.74L182.38 331.81L182.75 332.87L183.14 333.93L183.54 334.97L183.98 336L184.43 337.03L184.9 338.04L185.4 339.05L185.91 340.04L186.45 341.02L187.01 342L187.59 342.96L188.19 343.92L188.81 344.86L189.46 345.79L190.12 346.72L190.81 347.63L191.52 348.53L192.25 349.42L193 350.3L193.77 351.18L194.56 352.04L195.38 352.89L196.22 353.72L197.07 354.55L197.93 355.35L198.8 356.13L199.68 356.9L200.56 357.64L201.46 358.36L202.36 359.06L203.27 359.75L204.2 360.41L205.13 361.05L206.06 361.67L207.01 362.27L207.97 362.85L208.93 363.41L209.9 363.94L210.89 364.46L211.88 364.96L212.87 365.43L213.88 365.89L214.9 366.32L215.92 366.74L216.96 367.13L218 367.5L219.05 367.85L220.11 368.18L221.18 368.49L222.25 368.78L223.34 369.05L224.43 369.29L225.53 369.51L226.64 369.72L227.76 369.9L228.89 370.06L230.03 370.2L231.17 370.32L232.33 370.41L233.49 370.49L234.66 370.54L235.84 370.58L237.03 370.59L237.78 370.58L238.52 370.57L239.26 370.55L240 370.52L240.73 370.49L241.46 370.44L242.19 370.39L242.91 370.33L243.64 370.26L244.36 370.19L245.07 370.1L245.79 370.01L246.5 369.91L247.2 369.8L247.91 369.69L248.61 369.56L249.3 369.43L250 369.29L250.69 369.14L251.38 368.98L252.06 368.82L252.74 368.64L253.42 368.46L254.1 368.27L254.77 368.07L255.44 367.86L256.1 367.65L256.76 367.42L257.42 367.19L258.07 366.95L258.73 366.7L259.37 366.44L260.02 366.18L260.66 365.9L261.3 365.62L261.93 365.33L262.56 365.02L263.19 364.72L263.81 364.4L264.43 364.07L231.09 321.72L254.85 321.72L279.38 352.96L280.16 352.11L280.92 351.24L281.66 350.37L282.38 349.49L283.09 348.6L283.77 347.7L284.43 346.79L285.08 345.88L285.7 344.95L286.31 344.01L286.89 343.07L287.46 342.12L288.01 341.15L288.53 340.18L289.04 339.2L289.53 338.21L290 337.21L290.44 336.2L290.87 335.18L291.28 334.16L291.67 333.12L292.04 332.08L292.39 331.02L292.72 329.96L293.03 328.89L293.32 327.81L293.59 326.72L293.84 325.62L294.07 324.51L294.28 323.4L294.47 322.27L294.64 321.14L294.79 320L294.92 318.85L295.03 317.69L295.12 316.52L295.19 315.34L295.24 314.16L295.27 312.96L295.28 311.76L295.28 310.94L295.26 310.13L295.24 309.32L295.21 308.51L295.17 307.71L295.11 306.91L295.05 306.12L294.98 305.32L294.91 304.54L294.82 303.75L294.72 302.97L294.61 302.19L294.5 301.42L294.37 300.65L294.24 299.89L294.1 299.13L293.95 298.37L293.79 297.62L293.62 296.87L293.44 296.12L293.25 295.38L293.05 294.64L292.85 293.91L292.63 293.18L292.41 292.45L292.18 291.73L291.94 291.01L291.69 290.3L291.43 289.59L291.16 288.88L290.88 288.18L290.6 287.48L290.3 286.79L290 286.1L289.69 285.42L289.37 284.74L289.04 284.06L288.7 283.39L288.35 282.72L288 282.06L287.62 281.42L287.24 280.78L286.84 280.15L286.44 279.52L286.02 278.9L285.6 278.28L285.18 277.67L284.74 277.07L284.29 276.47L283.84 275.88L283.38 275.3L282.91 274.72L282.43 274.15L281.94 273.58L281.45 273.02L280.94 272.46L280.43 271.91L279.91 271.37L279.39 270.83L278.85 270.3L278.31 269.77L277.76 269.26L277.2 268.74L276.63 268.24L276.06 267.74L275.48 267.24L274.89 266.75L274.29 266.27L273.68 265.8L273.07 265.33L272.45 264.86L271.82 264.41L271.19 263.96L270.55 263.51L269.9 263.07L269.24 262.64L268.58 262.22L267.9 261.8L267.23 261.39L266.54 260.98L265.85 260.58L265.15 260.2L264.46 259.82L263.76 259.45L263.06 259.1L262.36 258.75L261.66 258.41L260.95 258.08L260.25 257.77L259.54 257.46L258.82 257.16L258.11 256.88L257.4 256.6L256.68 256.33L255.96 256.08L255.24 255.83L254.52 255.59L253.79 255.37L253.06 255.15L252.34 254.95L251.61 254.75L250.87 254.56L250.14 254.39L249.4 254.22L248.67 254.07L247.93 253.92L247.19 253.78L246.44 253.66L245.7 253.54L244.96 253.44L244.21 253.34L243.46 253.26L242.71 253.18L241.96 253.12L241.2 253.06L240.45 253.01L239.69 252.98L238.93 252.95L238.17 252.94L237.41 252.93L236.64 252.94L235.87 252.95Z" id="df0JsoRi6"></path><path d="M182.04 328.05C181.65 322.87 177.82 317.32 170.73 312.91C153.68 302.18 128.38 305.25 109.6 307.93C105.58 308.5 101.56 309.27 97.72 310.23C97.72 311.76 97.72 313.1 97.92 314.63C103.66 313.29 109.22 312.14 115.16 311.19C130.11 309.08 177.63 306.2 182.04 328.24C175.71 339.35 141.22 345.87 136.43 331.69C140.65 323.26 157.89 319.62 163.83 327.66C163.64 328.05 163.64 328.43 163.45 328.81C162.87 329.96 164.02 331.88 163.45 332.84C164.98 329.96 165.17 327.66 164.6 325.56C164.6 325.37 164.6 325.17 164.6 324.98C164.6 325.17 164.6 325.17 164.6 325.37C161.34 316.74 139.88 317.7 136.05 328.81C130.49 345.1 158.47 343.57 166.9 342.04C177.44 340.12 182.23 334.75 182.23 328.81C182.42 329.58 182.42 330.54 182.42 331.31C182.23 329.96 182.23 328.81 182.23 327.47C182.23 327.66 182.04 327.86 182.04 328.05Z" id="f4JmJA3ns"></path><path d="M172.07 324.98C172.07 324.02 172.07 322.87 172.07 321.92C170.16 303.9 125.13 312.14 114.97 313.87C109.22 314.83 103.47 316.17 97.92 317.89C97.92 319.23 97.92 320.57 98.11 321.92C103.66 320.38 109.41 319.04 115.16 317.89C127.43 315.59 167.28 308.12 172.07 326.13C169.58 334.18 156.17 339.54 151.19 332.26C152.14 331.11 153.68 330.73 155.78 330.35C155.98 330.35 155.59 326.32 155.78 326.32C152.53 326.9 150.8 328.62 150.23 330.73C150.23 330.73 150.23 330.73 150.23 330.54C150.23 330.58 150.23 330.88 150.23 330.92C150.04 331.5 150.04 332.26 150.23 332.84C150.23 333.01 150.23 334.39 150.23 334.56C150.23 334.37 150.23 333.99 150.42 333.8C150.99 335.71 152.53 337.63 155.02 338.59C165.75 342.8 171.31 334.95 172.26 326.51C172.46 327.09 172.46 327.47 172.46 328.05C172.46 327.79 172.46 326.51 172.46 324.22L172.26 324.22C172.14 324.6 172.07 324.85 172.07 324.98Z" id="c5790bJlw"></path><path d="M479.04 317.51C461.99 317.51 445.13 316.74 428.07 315.98C406.8 314.83 385.72 312.91 364.84 308.89C341.27 304.48 320.57 294.51 299.69 283.21C292.22 279.19 243.16 253.7 240.29 272.67C240.29 272.67 240.29 272.48 240.1 272.48C240.1 272.65 240.1 274.03 240.1 274.2C240.1 274.4 240.1 274.4 240.1 274.59C240.1 274.6 240.1 274.66 240.1 274.78C240.1 275.93 240.1 276.57 240.1 276.69C240.1 276.5 240.29 276.31 240.29 276.12C241.82 285.89 258.87 287.62 262.51 295.86C257.15 304.1 234.54 298.16 227.64 297.01C207.33 293.17 187.02 289.92 166.71 285.89C144.86 281.49 123.59 275.16 101.37 273.82C99.83 273.63 98.11 273.63 96.57 273.82C96.57 275.16 96.77 276.5 96.77 277.84C112.29 277.08 128.38 281.29 143.33 284.74C176.86 292.41 211.93 301.03 246.23 303.71C254.47 304.29 261.37 303.52 262.71 297.01C262.9 297.58 262.9 298.16 262.9 298.73C262.9 297.39 262.9 296.05 262.9 294.71C262.9 294.71 262.9 294.9 262.71 294.9C262.71 294.51 262.9 294.13 262.71 293.75C262.32 285.13 244.69 282.25 240.48 274.4C248.72 257.72 331.88 304.1 340.31 306.97C380.74 320.96 425.96 320.57 468.31 321.92C478.85 322.3 489.39 322.3 500.12 322.3C500.12 320.38 499.93 318.85 499.74 317.51C495.6 317.51 481.11 317.51 479.04 317.51Z" id="c4GQS73lZw"></path><path d="M482.3 331.11C412.36 331.11 341.65 338.4 272.1 331.31C255.81 329.58 196.22 311.19 189.89 332.65C187.21 341.65 198.71 344.14 202.16 350.85C199.66 356.6 192.19 358.51 185.1 359.66C170.54 361.58 154.06 362.92 139.69 361.58C135.47 361.2 130.68 360.24 126.28 358.9C127.23 360.43 128 361.96 128.96 363.31C144.86 366.75 161.92 365.8 187.4 362.73C194.49 361.77 201.77 358.51 202.54 352.19C202.54 352.38 202.54 352.38 202.73 352.57C202.73 352.46 202.73 351.54 202.73 351.43C202.73 351.43 202.73 351.43 202.73 351.23C202.73 351.22 202.73 351.16 202.73 351.04C202.73 349.89 202.73 349.25 202.73 349.13C202.73 349.32 202.54 349.51 202.54 349.51C201.2 343.19 192.57 342.04 190.28 336.48C184.91 323.64 225.92 327.09 231.28 327.86C254.85 331.5 277.65 335.52 301.6 336.67C352.19 339.35 403.16 334.95 453.75 334.18C470.8 333.99 487.86 333.8 505.1 333.8C504.91 333.03 504.91 332.07 504.72 331.11C500.23 331.11 484.54 331.11 482.3 331.11Z" id="d4gGzX0BJG"></path><path d="M282.44 315.4C242.78 310.61 203.5 303.52 164.22 296.62C141.6 292.6 119.57 288.57 97.72 288.19C97.72 289.53 97.92 290.87 97.92 292.02C127.43 292.02 157.13 299.31 186.83 304.48C234.16 312.72 280.91 319.62 328.81 322.87C382.85 326.51 436.31 328.24 490.54 328.24C491.67 328.22 500.71 328.07 501.84 328.05C501.46 327.09 501.65 325.94 501.65 324.6C428.65 324.22 355.07 324.02 282.44 315.4Z" id="anYZkf9g8"></path><path d="M447.43 288.96L463.9 288.96L463.9 370.59L496.67 403.16L578.11 403.16L610.87 370.59L610.87 288.96L627.35 288.96L627.35 239.71L545.53 239.71L545.53 288.96L562.01 288.96L562.01 353.92L512.77 353.92L512.77 288.96L529.25 288.96L529.25 239.71L447.43 239.71L447.43 288.96Z" id="bnT6G0AG7"></path><path d="M378.02 268.66L378.57 268.68L379.12 268.71L379.66 268.75L380.19 268.79L380.73 268.84L381.25 268.9L381.78 268.97L382.29 269.04L382.81 269.13L383.32 269.22L383.82 269.32L384.32 269.43L384.81 269.55L385.3 269.67L385.79 269.8L386.27 269.94L386.74 270.09L387.21 270.25L387.67 270.42L388.13 270.59L388.59 270.77L389.04 270.96L389.48 271.16L389.92 271.37L390.35 271.59L390.78 271.81L391.21 272.04L391.62 272.28L392.04 272.53L392.44 272.79L392.84 273.06L393.24 273.33L393.63 273.62L394.01 273.91L394.39 274.21L394.77 274.52L395.13 274.84L395.5 275.16L395.85 275.49L396.2 275.83L396.54 276.17L396.86 276.51L397.19 276.86L397.5 277.21L397.8 277.57L398.09 277.92L398.38 278.29L398.66 278.65L398.92 279.02L399.18 279.4L399.43 279.78L399.67 280.16L399.91 280.54L400.13 280.93L400.34 281.33L400.55 281.73L400.75 282.13L400.93 282.54L401.11 282.95L401.28 283.37L401.44 283.79L401.6 284.21L401.74 284.64L401.87 285.08L402 285.51L402.11 285.96L402.22 286.4L402.31 286.86L402.4 287.31L402.48 287.77L402.55 288.24L402.61 288.71L402.66 289.19L402.7 289.67L402.74 290.15L402.76 290.64L402.77 291.14L402.78 291.64L402.77 292.32L402.73 292.99L402.68 293.66L402.59 294.34L402.49 295.01L402.37 295.68L402.22 296.35L402.04 297.02L401.85 297.69L401.63 298.36L401.39 299.03L401.13 299.69L400.84 300.36L400.53 301.03L400.2 301.69L399.85 302.36L399.47 303.02L399.07 303.68L398.65 304.34L398.2 305.01L397.74 305.67L397.25 306.33L396.73 306.99L396.2 307.64L395.64 308.3L395.06 308.96L394.46 309.62L393.83 310.27L393.18 310.93L392.51 311.58L391.82 312.23L391.1 312.89L390.37 313.54L389.61 314.19L388.82 314.84L388.02 315.49L387.19 316.14L386.34 316.79L385.47 317.44L384.57 318.08L383.62 318.85L398.18 335.52L398.5 335.17L398.81 334.82L399.12 334.47L399.43 334.11L399.74 333.75L400.05 333.39L400.36 333.02L400.66 332.65L400.96 332.27L401.26 331.89L401.56 331.51L401.86 331.12L402.16 330.73L402.45 330.34L402.74 329.94L403.03 329.54L403.32 329.14L403.6 328.73L403.89 328.32L404.17 327.9L404.45 327.49L404.72 327.06L405 326.64L405.27 326.21L405.54 325.78L405.81 325.34L406.07 324.9L406.34 324.46L406.6 324.01L406.86 323.56L407.11 323.1L407.36 322.64L407.62 322.18L407.86 321.72L408.11 321.25L408.35 320.78L408.59 320.3L408.83 319.82L409.06 319.34L409.29 318.85L424.05 318.85L423.77 319.54L423.49 320.23L423.2 320.92L422.9 321.6L422.59 322.29L422.28 322.98L421.96 323.66L421.63 324.35L421.3 325.03L420.96 325.72L420.61 326.4L420.25 327.08L419.88 327.76L419.51 328.45L419.13 329.13L418.75 329.81L418.35 330.49L417.95 331.17L417.54 331.85L417.13 332.53L416.7 333.21L416.27 333.88L415.83 334.56L415.38 335.24L414.93 335.92L414.47 336.6L414 337.27L413.52 337.95L413.03 338.63L412.54 339.3L412.04 339.98L411.53 340.65L411.02 341.33L410.49 342.01L409.96 342.68L409.42 343.36L408.87 344.03L408.32 344.71L407.76 345.38L407.19 346.06L428.26 370.4L409.1 370.4L397.03 356.22L396.96 356.29L396.88 356.36L396.8 356.44L396.71 356.52L396.63 356.6L396.54 356.69L396.44 356.77L396.34 356.86L396.24 356.95L396.14 357.04L396.03 357.14L395.92 357.23L395.81 357.33L395.69 357.43L395.57 357.54L395.44 357.64L395.32 357.75L395.19 357.86L395.06 357.97L394.92 358.08L394.78 358.2L394.64 358.32L394.5 358.44L394.35 358.56L394.2 358.69L394.05 358.81L393.9 358.94L393.74 359.07L393.58 359.21L393.42 359.34L393.25 359.48L393.09 359.62L392.92 359.76L392.75 359.9L392.57 360.05L392.39 360.2L392.22 360.35L392.03 360.5L391.85 360.66L391.66 360.81L391.47 361.01L391.21 361.22L390.95 361.43L390.68 361.65L390.41 361.86L390.14 362.07L389.86 362.27L389.58 362.48L389.29 362.68L389 362.89L388.71 363.09L388.41 363.29L388.12 363.49L387.81 363.69L387.51 363.88L387.2 364.08L386.89 364.27L386.57 364.46L386.25 364.65L385.93 364.84L385.6 365.03L385.28 365.22L384.94 365.4L384.61 365.58L384.27 365.77L383.93 365.95L383.59 366.13L383.24 366.3L382.89 366.48L382.53 366.65L382.18 366.83L381.82 367L381.45 367.17L381.09 367.34L380.72 367.5L380.35 367.67L379.97 367.84L379.59 368L379.21 368.16L378.83 368.32L378.44 368.48L378.06 368.63L377.67 368.79L377.29 368.93L376.9 369.08L376.52 369.22L376.14 369.35L375.76 369.48L375.38 369.61L375.01 369.73L374.63 369.85L374.26 369.96L373.89 370.07L373.51 370.18L373.14 370.28L372.77 370.38L372.41 370.47L372.04 370.56L371.67 370.64L371.31 370.72L370.95 370.8L370.58 370.88L370.22 370.95L369.86 371.01L369.5 371.07L369.14 371.13L368.79 371.18L368.43 371.23L368.08 371.28L367.72 371.32L367.37 371.36L367.02 371.4L366.66 371.43L366.31 371.46L365.96 371.48L365.61 371.5L365.27 371.52L364.92 371.53L364.57 371.54L364.23 371.54L363.88 371.54L363.35 371.54L362.82 371.53L362.3 371.51L361.78 371.48L361.27 371.44L360.76 371.39L360.25 371.33L359.74 371.27L359.24 371.19L358.75 371.11L358.25 371.02L357.76 370.92L357.28 370.81L356.8 370.69L356.32 370.56L355.84 370.43L355.37 370.28L354.91 370.13L354.45 369.97L353.99 369.8L353.53 369.62L353.08 369.43L352.64 369.23L352.19 369.02L351.76 368.8L351.32 368.58L350.89 368.34L350.47 368.1L350.04 367.85L349.63 367.58L349.21 367.31L348.8 367.03L348.4 366.74L348 366.44L347.6 366.14L347.21 365.82L346.82 365.49L346.43 365.15L346.05 364.81L345.68 364.46L345.31 364.11L344.95 363.76L344.6 363.4L344.26 363.04L343.93 362.68L343.6 362.31L343.29 361.94L342.99 361.56L342.69 361.18L342.41 360.79L342.13 360.4L341.87 360.01L341.61 359.61L341.36 359.21L341.12 358.81L340.89 358.4L340.67 357.98L340.46 357.57L340.26 357.14L340.07 356.72L339.89 356.29L339.72 355.86L339.55 355.42L339.4 354.98L339.25 354.53L339.12 354.08L338.99 353.63L338.88 353.17L338.77 352.71L338.67 352.25L338.58 351.78L338.5 351.31L338.43 350.83L338.37 350.35L338.32 349.87L338.28 349.38L338.25 348.89L338.22 348.4L338.21 347.9L338.2 347.4L338.21 347.04L338.21 346.69L338.22 346.33L338.24 345.98L338.26 345.62L338.28 345.27L338.31 344.92L338.34 344.57L338.38 344.23L338.42 343.88L338.47 343.54L338.52 343.19L338.57 342.85L338.63 342.51L338.7 342.17L338.77 341.84L338.84 341.5L338.92 341.17L339 340.83L339.09 340.5L339.18 340.17L339.28 339.84L339.38 339.52L339.49 339.19L339.6 338.87L339.71 338.55L339.83 338.22L339.96 337.9L340.09 337.59L340.22 337.27L340.36 336.95L340.51 336.64L340.66 336.33L340.81 336.02L340.97 335.71L341.14 335.4L341.31 335.09L341.48 334.79L341.66 334.48L341.84 334.18L342.03 333.89L342.23 333.6L342.43 333.31L342.64 333.02L342.85 332.73L343.07 332.44L343.29 332.15L343.52 331.86L343.76 331.57L344 331.27L344.25 330.98L344.5 330.68L344.76 330.39L345.02 330.09L345.29 329.8L345.57 329.5L345.85 329.2L346.14 328.91L346.43 328.61L346.73 328.31L347.04 328.01L347.35 327.71L347.66 327.42L347.98 327.12L348.31 326.82L348.64 326.52L348.98 326.22L349.33 325.92L349.68 325.62L350.04 325.31L350.4 325.01L350.77 324.71L351.14 324.41L351.52 324.11L351.9 323.81L352.3 323.51L352.69 323.2L353.09 322.9L353.5 322.6L353.92 322.3L354.11 322.11L354.35 321.92L354.59 321.74L354.83 321.56L355.07 321.38L355.31 321.21L355.55 321.04L355.78 320.87L356.01 320.7L356.25 320.54L356.48 320.38L356.7 320.22L356.93 320.06L357.16 319.91L357.38 319.76L357.6 319.61L357.82 319.46L358.04 319.32L358.26 319.18L358.47 319.04L358.68 318.9L358.89 318.76L359.1 318.63L359.31 318.5L359.52 318.37L359.72 318.24L359.92 318.12L360.12 317.99L360.32 317.87L360.52 317.75L360.71 317.63L360.9 317.52L361.09 317.4L361.28 317.29L361.47 317.18L361.65 317.07L361.83 316.97L362.01 316.86L362.19 316.76L362.37 316.65L362.54 316.55L361.96 315.92L361.39 315.29L360.84 314.66L360.3 314.04L359.78 313.42L359.27 312.79L358.78 312.17L358.31 311.56L357.84 310.94L357.4 310.33L356.97 309.71L356.55 309.1L356.15 308.49L355.76 307.88L355.39 307.28L355.03 306.67L354.69 306.07L354.36 305.47L354.05 304.86L353.75 304.26L353.46 303.66L353.2 303.07L352.94 302.47L352.7 301.87L352.48 301.28L352.27 300.68L352.07 300.09L351.89 299.49L351.72 298.9L351.57 298.31L351.43 297.72L351.31 297.13L351.2 296.53L351.11 295.94L351.03 295.35L350.97 294.76L350.92 294.18L350.88 293.59L350.86 293L350.85 292.41L350.85 291.88L350.87 291.35L350.89 290.83L350.92 290.32L350.97 289.81L351.02 289.31L351.08 288.81L351.15 288.31L351.23 287.83L351.31 287.34L351.41 286.86L351.52 286.39L351.63 285.92L351.76 285.46L351.89 285L352.03 284.54L352.19 284.09L352.35 283.65L352.52 283.21L352.69 282.78L352.88 282.35L353.08 281.93L353.28 281.51L353.5 281.09L353.72 280.69L353.96 280.28L354.2 279.88L354.45 279.49L354.71 279.1L354.97 278.72L355.25 278.34L355.53 277.97L355.83 277.6L356.13 277.24L356.44 276.88L356.76 276.52L357.09 276.18L357.43 275.83L357.78 275.49L358.13 275.16L358.49 274.84L358.86 274.52L359.24 274.21L359.61 273.91L360 273.62L360.39 273.33L360.79 273.06L361.19 272.79L361.6 272.53L362.01 272.28L362.43 272.04L362.85 271.81L363.28 271.59L363.72 271.37L364.16 271.16L364.6 270.96L365.06 270.77L365.51 270.59L365.98 270.42L366.44 270.25L366.92 270.09L367.4 269.94L367.88 269.8L368.37 269.67L368.86 269.55L369.36 269.43L369.87 269.32L370.38 269.22L370.9 269.13L371.42 269.04L371.94 268.97L372.47 268.9L373.01 268.84L373.55 268.79L374.1 268.75L374.65 268.71L375.21 268.68L375.77 268.66L376.34 268.65L376.91 268.65L377.47 268.65L378.02 268.66ZM363.09 331.93L361.97 332.75L360.92 333.58L359.93 334.41L359.01 335.23L358.15 336.07L357.35 336.9L356.62 337.74L355.95 338.57L355.35 339.41L354.8 340.26L354.33 341.1L353.91 341.94L353.56 342.79L353.28 343.63L353.05 344.48L352.89 345.32L352.8 346.17L352.77 347.02L352.78 347.47L352.81 347.91L352.87 348.35L352.94 348.78L353.04 349.21L353.16 349.63L353.3 350.04L353.47 350.44L353.65 350.84L353.85 351.24L354.08 351.62L354.32 352.01L354.59 352.38L354.87 352.75L355.18 353.11L355.51 353.46L355.85 353.81L356.22 354.16L356.6 354.49L357 354.81L357.4 355.12L357.82 355.4L358.25 355.67L358.68 355.92L359.13 356.15L359.59 356.36L360.05 356.56L360.53 356.73L361.01 356.89L361.5 357.03L362.01 357.16L362.52 357.26L363.04 357.35L363.57 357.43L364.11 357.48L364.67 357.52L365.23 357.55L365.8 357.56L366.22 357.55L366.66 357.53L367.11 357.5L367.56 357.45L368.03 357.4L368.5 357.33L368.98 357.24L369.46 357.15L369.95 357.04L370.45 356.92L370.96 356.79L371.47 356.64L371.99 356.48L372.51 356.31L373.04 356.12L373.57 355.93L374.1 355.72L374.64 355.49L375.19 355.26L375.73 354.98L376.26 354.7L376.79 354.41L377.31 354.12L377.83 353.82L378.34 353.51L378.84 353.2L379.34 352.88L379.83 352.55L380.31 352.22L380.79 351.88L381.26 351.53L381.73 351.18L382.19 350.82L382.64 350.46L383.08 350.09L383.52 349.71L383.96 349.32L384.38 348.93L387.64 345.87L370.78 326.51L364.26 331.11L363.09 331.93ZM375.45 281.15L374.83 281.22L374.24 281.31L373.65 281.42L373.09 281.56L372.53 281.73L372 281.92L371.48 282.14L370.97 282.38L370.48 282.65L370 282.94L369.54 283.26L369.1 283.61L368.67 283.98L368.26 284.36L367.88 284.76L367.52 285.17L367.19 285.59L366.89 286.03L366.61 286.47L366.37 286.93L366.14 287.4L365.95 287.88L365.79 288.38L365.65 288.89L365.55 289.41L365.47 289.95L365.43 290.5L365.41 291.07L365.42 291.61L365.45 292.16L365.51 292.72L365.58 293.29L365.68 293.86L365.79 294.44L365.93 295.03L366.1 295.63L366.28 296.23L366.49 296.83L366.73 297.43L366.98 298.04L367.27 298.65L367.57 299.27L367.9 299.88L368.26 300.53L368.62 301.17L369.01 301.81L369.41 302.44L369.82 303.07L370.25 303.68L370.69 304.3L371.15 304.9L371.63 305.5L372.12 306.08L372.63 306.66L373.15 307.23L373.68 307.79L374.24 308.34L374.8 308.89L380.55 304.86L381.59 304.12L382.54 303.37L383.43 302.59L384.24 301.79L384.97 300.97L385.63 300.14L386.22 299.28L386.74 298.41L387.19 297.52L387.56 296.62L387.87 295.69L388.11 294.75L388.27 293.79L388.37 292.82L388.41 291.83L388.39 291.23L388.35 290.64L388.27 290.06L388.17 289.5L388.03 288.95L387.87 288.42L387.68 287.9L387.46 287.39L387.21 286.89L386.93 286.41L386.63 285.94L386.3 285.48L385.94 285.03L385.56 284.59L385.15 284.17L384.72 283.76L384.27 283.39L383.79 283.04L383.3 282.72L382.79 282.44L382.26 282.18L381.72 281.95L381.15 281.75L380.57 281.57L379.97 281.43L379.35 281.31L378.72 281.22L378.07 281.15L377.4 281.11L376.72 281.1L376.07 281.11L375.45 281.15Z" id="b3omf3KHIs"></path><path d="M128.77 386.11L106.16 338.97L47.52 338.97L25.1 386.11L3.45 386.11L73.58 237.6L80.48 237.6L149.84 386.11L128.77 386.11ZM97.34 320L76.84 276.5L56.34 320L97.34 320Z" id="c26maToHyw"></path><path d="M315.21 311.95C315.21 290.11 307.54 271.52 292.6 256.57C292.02 256 291.64 255.62 291.07 255.23C286.47 258.49 281.68 261.17 276.89 264.24C275.93 264.81 274.97 265.77 274.2 266.35C279.76 270.75 284.36 275.93 287.81 282.06C292.79 290.87 295.47 300.84 295.47 311.76C295.47 327.86 290.11 341.65 279.57 352.96C277.92 350.88 269.68 340.46 254.85 321.72L231.09 321.72C251.09 347.13 262.21 361.25 264.43 364.07C262.51 365.03 260.41 365.99 258.3 366.75C261.94 372.31 264.81 378.06 266.73 384.19C270.18 382.85 273.44 381.32 276.69 379.4C277.63 380.59 282.29 386.53 290.68 397.22L314.83 397.22C300.91 379.75 293.19 370.04 291.64 368.1C299.31 360.43 305.25 352 309.08 343.19C313.1 333.8 315.21 323.26 315.21 311.95Z" id="byXupk5TW"></path></defs><g><g><g><use xlink:href="#df0JsoRi6" opacity="1" fill="#d9534f" fill-opacity="1"></use><g><use xlink:href="#df0JsoRi6" opacity="1" fill-opacity="0" stroke="#000000" stroke-width="1" stroke-opacity="0"></use></g></g><g><use xlink:href="#f4JmJA3ns" opacity="1" fill="#d9534f" fill-opacity="1"></use><g><use xlink:href="#f4JmJA3ns" opacity="1" fill-opacity="0" stroke="#000000" stroke-width="1" stroke-opacity="0"></use></g></g><g><use xlink:href="#c5790bJlw" opacity="1" fill="#d9534f" fill-opacity="1"></use><g><use xlink:href="#c5790bJlw" opacity="1" fill-opacity="0" stroke="#000000" stroke-width="1" stroke-opacity="0"></use></g></g><g><use xlink:href="#c4GQS73lZw" opacity="1" fill="#d9534f" fill-opacity="1"></use><g><use xlink:href="#c4GQS73lZw" opacity="1" fill-opacity="0" stroke="#000000" stroke-width="1" stroke-opacity="0"></use></g></g><g><use xlink:href="#d4gGzX0BJG" opacity="1" fill="#d9534f" fill-opacity="1"></use><g><use xlink:href="#d4gGzX0BJG" opacity="1" fill-opacity="0" stroke="#000000" stroke-width="1" stroke-opacity="0"></use></g></g><g><use xlink:href="#anYZkf9g8" opacity="1" fill="#d9534f" fill-opacity="1"></use><g><use xlink:href="#anYZkf9g8" opacity="1" fill-opacity="0" stroke="#000000" stroke-width="1" stroke-opacity="0"></use></g></g><g><use xlink:href="#bnT6G0AG7" opacity="1" fill="#d9534f" fill-opacity="1"></use><g><use xlink:href="#bnT6G0AG7" opacity="1" fill-opacity="0" stroke="#000000" stroke-width="1" stroke-opacity="0"></use></g></g><g><use xlink:href="#b3omf3KHIs" opacity="1" fill="#d9534f" fill-opacity="1"></use><g><use xlink:href="#b3omf3KHIs" opacity="1" fill-opacity="0" stroke="#000000" stroke-width="1" stroke-opacity="0"></use></g></g><g><use xlink:href="#c26maToHyw" opacity="1" fill="#d9534f" fill-opacity="1"></use><g><use xlink:href="#c26maToHyw" opacity="1" fill-opacity="0" stroke="#000000" stroke-width="1" stroke-opacity="0"></use></g></g><g><use xlink:href="#byXupk5TW" opacity="1" fill="#d9534f" fill-opacity="1"></use><g><use xlink:href="#byXupk5TW" opacity="1" fill-opacity="0" stroke="#000000" stroke-width="1" stroke-opacity="0"></use></g></g></g></g></svg>